# xmcd
#
# Track frame offsets: 
#        150
#        12737
#        23645
#        35017
#        49855
#        62325
#        73520
#        84980
#        96490
#        108022
#        122422
#        134710
#        147020
#        158675
#        169760
#
# Disc length: 2440 seconds
#
# Revision: 1
# Processed by: cddbd v1.5.2PL0 Copyright (c) Steve Scherf et al.
# Submitted via: ExactAudioCopy v1.0b4
#
DISCID=c309860f
DTITLE=Diversen - Living The Blues-Raunchy Blues CD2
DYEAR=2000
DGENRE=Blues
TTITLE0=Midnighters  Work Withe Me Annie
TTITLE1=Eddie "Cleanhead" Vinson  Some Women Do
TTITLE2=Dominoes  Sixty-Minute Man
TTITLE3=Floyd Dixon  Baby Let's Go Down To The Woods
TTITLE4=Chubby Newsome  Hip Shakin' Mama
TTITLE5=Roy Brown  Butcher Pete Pt.1
TTITLE6=Jimmy McCracklin  Pleasin' Papa
TTITLE7=Julia Lee  Do You Want It
TTITLE8=Lightnin' Hopkins  Let Me Play With Your Poodle
TTITLE9=Jimmy Wilson  Lemon Sequeezer
TTITLE10=Wynony Harris  I Like My Baby's Pudding
TTITLE11=Todd Rhodes  Rocket 69
TTITLE12=Smilin' Joe  Sleepwalking Woman
TTITLE13=Dirty Red  Mother Fuyer
TTITLE14=Drill, Daddy, Drill
EXTD=
EXTT0=
EXTT1=
EXTT2=
EXTT3=
EXTT4=
EXTT5=
EXTT6=
EXTT7=
EXTT8=
EXTT9=
EXTT10=
EXTT11=
EXTT12=
EXTT13=
EXTT14=
PLAYORDER=
